<svg version="1.1" id="Layer_1" xmlns="http://www.w3.org/2000/svg" xmlns:xlink="http://www.w3.org/1999/xlink" x="0px" y="0px"
	 width="100%" viewBox="0 0 550 599" enable-background="new 0 0 550 599" xml:space="preserve">
<path fill="#202020" opacity="1.000000" stroke="none" 
	d="
M551.000000,234.000000 
	C551.000000,356.333344 551.000000,478.166656 551.000000,600.000000 
	C367.666656,600.000000 184.333328,600.000000 1.000000,600.000000 
	C1.000000,400.333344 1.000000,200.666672 1.000000,1.000000 
	C184.333328,1.000000 367.666656,1.000000 551.000000,1.000000 
	C551.000000,78.500000 551.000000,156.000000 551.000000,234.000000 
M66.360741,396.067841 
	C73.224792,407.759583 79.473465,419.870422 87.088043,431.051025 
	C100.643112,450.954163 117.640587,467.828857 137.056229,481.989838 
	C156.812424,496.399139 178.280884,507.745209 201.712952,515.239807 
	C234.210876,525.633972 267.241791,529.647766 301.248260,525.245422 
	C326.778900,521.940369 351.146362,514.989258 374.174591,503.508728 
	C393.839630,493.704834 411.807129,481.533417 428.264191,466.785889 
	C441.756195,454.695374 453.490173,441.106506 463.453979,426.354950 
	C472.743073,412.602234 480.006409,397.329224 486.927490,382.162354 
	C499.462341,354.693573 504.583740,325.365692 505.961426,295.370514 
	C506.833160,276.391052 504.597290,257.633179 501.076019,238.986389 
	C494.919891,206.386627 481.551392,176.651566 463.348297,149.350113 
	C451.224609,131.166733 436.265930,115.071312 419.014557,101.170219 
	C397.080872,83.496078 373.007690,69.951462 346.350037,61.113369 
	C313.500153,50.222313 279.898834,46.213936 245.378113,50.785366 
	C220.710800,54.051952 197.102692,60.679344 174.718185,71.542419 
	C146.806641,85.087738 122.419785,103.211838 101.725258,126.494926 
	C81.402061,149.360214 66.187798,175.188660 55.912788,203.797211 
	C42.846661,240.177078 37.968563,277.646729 42.714481,316.285126 
	C46.119907,344.010101 53.330139,370.480194 66.360741,396.067841 
z"/>
<path fill="#967087" opacity="1.000000" stroke="none" 
	d="
M66.175034,395.742157 
	C53.330139,370.480194 46.119907,344.010101 42.714481,316.285126 
	C37.968563,277.646729 42.846661,240.177078 55.912788,203.797211 
	C66.187798,175.188660 81.402061,149.360214 101.725258,126.494926 
	C122.419785,103.211838 146.806641,85.087738 174.718185,71.542419 
	C197.102692,60.679344 220.710800,54.051952 245.378113,50.785366 
	C279.898834,46.213936 313.500153,50.222313 346.350037,61.113369 
	C373.007690,69.951462 397.080872,83.496078 419.014557,101.170219 
	C436.265930,115.071312 451.224609,131.166733 463.348297,149.350113 
	C481.551392,176.651566 494.919891,206.386627 501.076019,238.986389 
	C504.597290,257.633179 506.833160,276.391052 505.961426,295.370514 
	C504.583740,325.365692 499.462341,354.693573 486.927490,382.162354 
	C480.006409,397.329224 472.743073,412.602234 463.453979,426.354950 
	C453.490173,441.106506 441.756195,454.695374 428.264191,466.785889 
	C411.807129,481.533417 393.839630,493.704834 374.174591,503.508728 
	C351.146362,514.989258 326.778900,521.940369 301.248260,525.245422 
	C267.241791,529.647766 234.210876,525.633972 201.712952,515.239807 
	C178.280884,507.745209 156.812424,496.399139 137.056229,481.989838 
	C117.640587,467.828857 100.643112,450.954163 87.088043,431.051025 
	C79.473465,419.870422 73.224792,407.759583 66.175034,395.742157 
M51.907372,315.503845 
	C54.336689,336.232025 59.226505,356.307251 67.043816,375.715668 
	C84.590874,419.280640 112.634666,454.408325 151.518906,480.649902 
	C181.983948,501.209747 215.756836,513.338745 252.327881,516.839966 
	C296.006958,521.021729 337.312561,512.546692 376.224365,492.102509 
	C409.383087,474.680939 436.228302,450.137146 457.009766,419.307953 
	C476.862488,389.856476 489.191559,357.276978 494.360352,321.899841 
	C499.008606,290.085571 497.211945,258.736450 489.057892,227.867783 
	C476.976196,182.130127 453.273590,143.342575 417.440247,112.135597 
	C391.769714,89.779373 362.428741,74.172600 329.667297,65.496681 
	C302.112152,58.199509 274.026917,56.087223 245.536942,59.960537 
	C214.771851,64.143158 186.151703,74.150978 159.671356,90.175667 
	C126.511078,110.242744 100.206734,137.268875 81.298965,171.022171 
	C73.780479,184.443832 67.140747,198.677475 62.493313,213.301727 
	C57.394787,229.345428 54.382320,246.157776 51.701130,262.834595 
	C48.944630,279.979797 49.417480,297.356750 51.907372,315.503845 
z"/>
<path fill="#000000" opacity="1.000000" stroke="none" 
	d="
M51.844643,315.059509 
	C49.417480,297.356750 48.944630,279.979797 51.701130,262.834595 
	C54.382320,246.157776 57.394787,229.345428 62.493313,213.301727 
	C67.140747,198.677475 73.780479,184.443832 81.298965,171.022171 
	C100.206734,137.268875 126.511078,110.242744 159.671356,90.175667 
	C186.151703,74.150978 214.771851,64.143158 245.536942,59.960537 
	C274.026917,56.087223 302.112152,58.199509 329.667297,65.496681 
	C362.428741,74.172600 391.769714,89.779373 417.440247,112.135597 
	C453.273590,143.342575 476.976196,182.130127 489.057892,227.867783 
	C497.211945,258.736450 499.008606,290.085571 494.360352,321.899841 
	C489.191559,357.276978 476.862488,389.856476 457.009766,419.307953 
	C436.228302,450.137146 409.383087,474.680939 376.224365,492.102509 
	C337.312561,512.546692 296.006958,521.021729 252.327881,516.839966 
	C215.756836,513.338745 181.983948,501.209747 151.518906,480.649902 
	C112.634666,454.408325 84.590874,419.280640 67.043816,375.715668 
	C59.226505,356.307251 54.336689,336.232025 51.844643,315.059509 
M262.088501,273.390900 
	C258.051270,262.358612 254.006088,251.329193 249.979080,240.293167 
	C246.232574,230.025940 242.706589,219.672272 238.695938,209.509613 
	C236.200806,203.187149 232.556396,199.814331 224.930420,199.867844 
	C184.608566,200.150742 144.283676,200.000626 103.959831,200.000626 
	C102.045395,200.000626 100.130959,200.000610 98.000603,200.000610 
	C98.000603,206.617188 97.998901,212.439362 98.001038,218.261536 
	C98.003677,225.457840 100.521309,227.992889 107.746391,227.995575 
	C133.573639,228.005203 159.404572,227.777847 185.224716,228.206650 
	C189.794769,228.282547 195.368118,229.922241 198.609436,232.884521 
	C202.999664,236.896805 206.440704,242.523438 208.783218,248.091049 
	C215.423553,263.873779 221.311096,279.973663 227.467331,295.959351 
	C229.712875,301.790253 231.880157,307.651306 234.375458,314.274475 
	C214.003281,314.274475 194.602112,314.274475 175.001129,314.274475 
	C175.001129,319.296570 174.959702,323.787872 175.011383,328.278076 
	C175.079086,334.160065 177.941772,336.994019 183.763504,336.996338 
	C203.583572,337.004211 223.403641,336.999359 243.398361,336.999359 
	C255.185333,367.175659 266.980835,397.208252 278.563995,427.322571 
	C279.559509,429.910645 280.445770,431.081787 283.316559,431.053955 
	C296.478882,430.926483 309.643372,430.957184 322.806488,431.033234 
	C325.331543,431.047821 326.363190,430.225616 327.293091,427.673096 
	C330.979614,417.553864 335.104095,407.593201 339.115692,397.593567 
	C348.048645,375.326233 357.144531,353.123260 365.930359,330.798157 
	C378.837097,298.001648 391.554199,265.130402 404.301483,232.271378 
	C408.152161,222.345428 411.835236,212.354477 415.743317,202.000580 
	C403.985901,202.000580 392.993530,202.000351 382.001160,202.000641 
	C372.972107,202.000870 372.086151,202.614441 369.068390,210.905457 
	C357.016907,244.016159 345.008850,277.142975 332.775574,310.186371 
	C332.167389,311.829132 329.613159,313.805084 327.934143,313.834045 
	C311.942688,314.110016 295.943817,314.061249 279.949585,313.883759 
	C278.617584,313.868988 276.553680,312.517395 276.096954,311.308289 
	C271.426727,298.945129 267.018982,286.482788 262.088501,273.390900 
z"/>
<path fill="#987188" opacity="1.000000" stroke="none" 
	d="
M262.313171,273.719543 
	C267.018982,286.482788 271.426727,298.945129 276.096954,311.308289 
	C276.553680,312.517395 278.617584,313.868988 279.949585,313.883759 
	C295.943817,314.061249 311.942688,314.110016 327.934143,313.834045 
	C329.613159,313.805084 332.167389,311.829132 332.775574,310.186371 
	C345.008850,277.142975 357.016907,244.016159 369.068390,210.905457 
	C372.086151,202.614441 372.972107,202.000870 382.001160,202.000641 
	C392.993530,202.000351 403.985901,202.000580 415.743317,202.000580 
	C411.835236,212.354477 408.152161,222.345428 404.301483,232.271378 
	C391.554199,265.130402 378.837097,298.001648 365.930359,330.798157 
	C357.144531,353.123260 348.048645,375.326233 339.115692,397.593567 
	C335.104095,407.593201 330.979614,417.553864 327.293091,427.673096 
	C326.363190,430.225616 325.331543,431.047821 322.806488,431.033234 
	C309.643372,430.957184 296.478882,430.926483 283.316559,431.053955 
	C280.445770,431.081787 279.559509,429.910645 278.563995,427.322571 
	C266.980835,397.208252 255.185333,367.175659 243.398361,336.999359 
	C223.403641,336.999359 203.583572,337.004211 183.763504,336.996338 
	C177.941772,336.994019 175.079086,334.160065 175.011383,328.278076 
	C174.959702,323.787872 175.001129,319.296570 175.001129,314.274475 
	C194.602112,314.274475 214.003281,314.274475 234.375458,314.274475 
	C231.880157,307.651306 229.712875,301.790253 227.467331,295.959351 
	C221.311096,279.973663 215.423553,263.873779 208.783218,248.091049 
	C206.440704,242.523438 202.999664,236.896805 198.609436,232.884521 
	C195.368118,229.922241 189.794769,228.282547 185.224716,228.206650 
	C159.404572,227.777847 133.573639,228.005203 107.746391,227.995575 
	C100.521309,227.992889 98.003677,225.457840 98.001038,218.261536 
	C97.998901,212.439362 98.000603,206.617188 98.000603,200.000610 
	C100.130959,200.000610 102.045395,200.000626 103.959831,200.000626 
	C144.283676,200.000626 184.608566,200.150742 224.930420,199.867844 
	C232.556396,199.814331 236.200806,203.187149 238.695938,209.509613 
	C242.706589,219.672272 246.232574,230.025940 249.979080,240.293167 
	C254.006088,251.329193 258.051270,262.358612 262.313171,273.719543 
M306.510803,383.987152 
	C311.767365,368.407532 317.023926,352.827881 322.222687,337.419556 
	C310.200958,337.419556 298.188843,337.419556 286.009766,337.419556 
	C291.978333,355.251434 297.800232,372.645172 303.622131,390.038910 
	C303.944458,389.963348 304.266785,389.887817 304.589111,389.812286 
	C305.092499,388.099945 305.595886,386.387634 306.510803,383.987152 
z"/>
<path fill="#000000" opacity="1.000000" stroke="none" 
	d="
M306.305054,384.331238 
	C305.595886,386.387634 305.092499,388.099945 304.589111,389.812286 
	C304.266785,389.887817 303.944458,389.963348 303.622131,390.038910 
	C297.800232,372.645172 291.978333,355.251434 286.009766,337.419556 
	C298.188843,337.419556 310.200958,337.419556 322.222687,337.419556 
	C317.023926,352.827881 311.767365,368.407532 306.305054,384.331238 
z"/>
</svg>